<svg xmlns="http://www.w3.org/2000/svg" xmlns:xlink="http://www.w3.org/1999/xlink" width="500" zoomAndPan="magnify" viewBox="0 0 375 374.999991" height="500" preserveAspectRatio="xMidYMid meet" version="1.0"><defs><g/><clipPath id="d30d24b626"><path d="M 37.5 149.191406 L 118.777344 149.191406 L 118.777344 230.472656 L 37.5 230.472656 Z M 37.5 149.191406 " clip-rule="nonzero"/></clipPath></defs><g fill="#eeeeee" fill-opacity="1"><g transform="translate(134.33632, 229.817841)"><g><path d="M 27.382812 -60.550781 L 27.382812 -75.078125 C 27.382812 -77.648438 26.867188 -79.449219 25.582031 -80.992188 C 24.941406 -81.632812 23.910156 -82.019531 22.753906 -82.019531 C 20.3125 -82.019531 19.15625 -80.21875 18.640625 -78.546875 C 18.253906 -77.519531 18.125 -76.363281 18.125 -75.078125 L 18.125 -18.253906 C 18.125 -15.554688 18.769531 -13.753906 20.054688 -12.339844 C 20.699219 -11.699219 21.597656 -11.3125 22.753906 -11.3125 C 25.199219 -11.3125 26.355469 -12.855469 26.867188 -14.785156 C 27.253906 -15.683594 27.382812 -16.839844 27.382812 -18.253906 L 27.382812 -35.351562 L 21.855469 -35.351562 L 21.855469 -47.050781 L 41.265625 -47.050781 L 41.265625 0 L 33.039062 0 L 31.367188 -4.5 C 28.796875 -1.285156 25.070312 1.027344 20.570312 1.027344 C 16.070312 1.027344 12.984375 -0.128906 10.671875 -2.183594 C 8.355469 -4.113281 6.8125 -6.554688 5.785156 -9.128906 C 4.628906 -12.085938 4.113281 -15.554688 4.242188 -19.414062 L 4.242188 -75.078125 C 4.371094 -78.804688 5.140625 -82.277344 6.554688 -85.234375 C 7.714844 -87.804688 9.382812 -90.375 11.957031 -92.304688 C 14.527344 -94.234375 18.125 -95.519531 22.753906 -95.519531 C 27.382812 -95.519531 30.855469 -94.234375 33.425781 -92.304688 C 35.996094 -90.375 37.796875 -87.804688 38.953125 -85.234375 C 40.367188 -82.277344 41.136719 -78.804688 41.265625 -75.078125 L 41.265625 -60.550781 Z M 27.382812 -60.550781 "/></g></g></g><g fill="#eeeeee" fill-opacity="1"><g transform="translate(180.616007, 229.817841)"><g><path d="M 29.953125 0 L 22.753906 -39.851562 L 19.027344 -39.851562 L 19.027344 0 L 5.140625 0 L 5.140625 -94.488281 L 19.027344 -94.488281 C 35.609375 -94.488281 42.679688 -85.105469 42.679688 -67.234375 C 42.679688 -57.851562 40.238281 -49.367188 34.96875 -45.765625 L 43.839844 0 Z M 19.027344 -52.707031 C 20.953125 -52.707031 23.527344 -52.964844 25.582031 -54.765625 C 27.640625 -56.566406 29.3125 -60.035156 29.3125 -66.722656 C 29.3125 -73.40625 27.640625 -77.007812 25.582031 -78.804688 C 23.527344 -80.605469 20.953125 -80.734375 19.027344 -80.734375 Z M 19.027344 -52.707031 "/></g></g></g><g fill="#eeeeee" fill-opacity="1"><g transform="translate(227.024256, 229.817841)"><g><path d="M 1.285156 0 L 15.554688 -94.488281 L 32.523438 -94.488281 L 46.796875 0 L 33.296875 0 L 30.726562 -19.285156 L 17.355469 -19.285156 L 14.785156 0 Z M 24.8125 -63.765625 L 24.425781 -66.207031 L 23.65625 -66.207031 L 23.269531 -63.765625 L 19.285156 -33.9375 L 28.796875 -33.9375 Z M 24.8125 -63.765625 "/></g></g></g><g fill="#eeeeee" fill-opacity="1"><g transform="translate(275.10371, 229.817841)"><g><path d="M 5.140625 -94.488281 L 19.027344 -94.488281 L 19.027344 0 L 5.140625 0 Z M 5.140625 -94.488281 "/></g></g></g><g fill="#eeeeee" fill-opacity="1"><g transform="translate(299.271993, 229.817841)"><g><path d="M 5.140625 -94.488281 L 19.027344 -94.488281 L 19.027344 -12.855469 L 37.410156 -12.855469 L 37.410156 0 L 5.140625 0 Z M 5.140625 -94.488281 "/></g></g></g><g clip-path="url(#d30d24b626)"><path fill="#eeeeee" d="M 78.128906 149.191406 L 37.5 189.820312 L 37.5 230.445312 L 78.128906 230.445312 L 118.753906 189.820312 L 118.753906 149.191406 Z M 108.597656 180.929688 C 95.785156 180.929688 89.550781 187.160156 89.550781 199.976562 L 87.011719 199.976562 C 87.011719 187.164062 80.785156 180.929688 67.964844 180.929688 L 67.964844 178.390625 C 80.78125 178.390625 87.011719 172.164062 87.011719 159.34375 L 89.550781 159.34375 C 89.550781 172.160156 95.78125 178.390625 108.597656 178.390625 Z M 108.597656 180.929688 " fill-opacity="1" fill-rule="nonzero"/></g></svg>