<svg xmlns="http://www.w3.org/2000/svg" xmlns:xlink="http://www.w3.org/1999/xlink" width="500" zoomAndPan="magnify" viewBox="0 0 375 374.999991" height="500" preserveAspectRatio="xMidYMid meet" version="1.0"><defs><g/><clipPath id="417a9b05e4"><path d="M 37.5 149.191406 L 118.777344 149.191406 L 118.777344 230.472656 L 37.5 230.472656 Z M 37.5 149.191406 " clip-rule="nonzero"/></clipPath></defs><g fill="#000624" fill-opacity="1"><g transform="translate(134.342513, 229.351631)"><g><path d="M 27.382812 -60.546875 L 27.382812 -75.074219 C 27.382812 -77.644531 26.867188 -79.445312 25.582031 -80.988281 C 24.9375 -81.632812 23.910156 -82.015625 22.753906 -82.015625 C 20.3125 -82.015625 19.15625 -80.21875 18.640625 -78.546875 C 18.253906 -77.519531 18.125 -76.359375 18.125 -75.074219 L 18.125 -18.253906 C 18.125 -15.554688 18.769531 -13.753906 20.054688 -12.339844 C 20.695312 -11.699219 21.597656 -11.3125 22.753906 -11.3125 C 25.195312 -11.3125 26.351562 -12.855469 26.867188 -14.785156 C 27.253906 -15.683594 27.382812 -16.839844 27.382812 -18.253906 L 27.382812 -35.351562 L 21.855469 -35.351562 L 21.855469 -47.050781 L 41.265625 -47.050781 L 41.265625 0 L 33.039062 0 L 31.367188 -4.5 C 28.796875 -1.285156 25.066406 1.027344 20.570312 1.027344 C 16.070312 1.027344 12.984375 -0.128906 10.671875 -2.183594 C 8.355469 -4.113281 6.8125 -6.554688 5.785156 -9.128906 C 4.628906 -12.085938 4.113281 -15.554688 4.242188 -19.410156 L 4.242188 -75.074219 C 4.371094 -78.804688 5.140625 -82.273438 6.554688 -85.230469 C 7.714844 -87.800781 9.382812 -90.375 11.957031 -92.300781 C 14.527344 -94.230469 18.125 -95.515625 22.753906 -95.515625 C 27.382812 -95.515625 30.851562 -94.230469 33.425781 -92.300781 C 35.996094 -90.375 37.792969 -87.800781 38.953125 -85.230469 C 40.367188 -82.273438 41.136719 -78.804688 41.265625 -75.074219 L 41.265625 -60.546875 Z M 27.382812 -60.546875 "/></g></g></g><g fill="#000624" fill-opacity="1"><g transform="translate(180.618474, 229.351631)"><g><path d="M 29.953125 0 L 22.753906 -39.851562 L 19.027344 -39.851562 L 19.027344 0 L 5.140625 0 L 5.140625 -94.488281 L 19.027344 -94.488281 C 35.609375 -94.488281 42.679688 -85.101562 42.679688 -67.234375 C 42.679688 -57.847656 40.238281 -49.363281 34.964844 -45.765625 L 43.835938 0 Z M 19.027344 -52.707031 C 20.953125 -52.707031 23.523438 -52.964844 25.582031 -54.765625 C 27.640625 -56.5625 29.308594 -60.035156 29.308594 -66.71875 C 29.308594 -73.402344 27.640625 -77.003906 25.582031 -78.804688 C 23.523438 -80.601562 20.953125 -80.730469 19.027344 -80.730469 Z M 19.027344 -52.707031 "/></g></g></g><g fill="#000624" fill-opacity="1"><g transform="translate(227.022985, 229.351631)"><g><path d="M 1.285156 0 L 15.554688 -94.488281 L 32.523438 -94.488281 L 46.792969 0 L 33.296875 0 L 30.722656 -19.28125 L 17.355469 -19.28125 L 14.785156 0 Z M 24.8125 -63.761719 L 24.425781 -66.203125 L 23.652344 -66.203125 L 23.269531 -63.761719 L 19.28125 -33.9375 L 28.796875 -33.9375 Z M 24.8125 -63.761719 "/></g></g></g><g fill="#000624" fill-opacity="1"><g transform="translate(275.098564, 229.351631)"><g><path d="M 5.140625 -94.488281 L 19.027344 -94.488281 L 19.027344 0 L 5.140625 0 Z M 5.140625 -94.488281 "/></g></g></g><g fill="#000624" fill-opacity="1"><g transform="translate(299.264896, 229.351631)"><g><path d="M 5.140625 -94.488281 L 19.027344 -94.488281 L 19.027344 -12.855469 L 37.410156 -12.855469 L 37.410156 0 L 5.140625 0 Z M 5.140625 -94.488281 "/></g></g></g><g clip-path="url(#417a9b05e4)"><path fill="#000000" d="M 78.140625 149.191406 L 37.5 189.832031 L 37.5 230.472656 L 78.140625 230.472656 L 118.777344 189.832031 L 118.777344 149.191406 Z M 108.617188 180.941406 C 95.800781 180.941406 89.566406 187.171875 89.566406 199.992188 L 87.027344 199.992188 C 87.027344 187.175781 80.796875 180.941406 67.976562 180.941406 L 67.976562 178.398438 C 80.792969 178.398438 87.027344 172.171875 87.027344 159.347656 L 89.566406 159.347656 C 89.566406 172.167969 95.796875 178.398438 108.617188 178.398438 Z M 108.617188 180.941406 " fill-opacity="1" fill-rule="nonzero"/></g></svg>